<svg width="291" height="182" viewBox="0 0 291 182" fill="none" xmlns="http://www.w3.org/2000/svg">
<path d="M162.183 103.099L139.98 63.9064L155.931 54.6008L183.54 103.099H162.183Z" fill="white"/>
<path d="M103.045 97.6077L118.995 88.2393L127.435 103.099H106.14L103.045 97.6077Z" fill="white"/>
<path d="M134.348 128.102H138.887V109.449H134.348V128.102Z" fill="white"/>
<path d="M191.237 128.543C186.16 128.543 183.106 125.881 182.941 122.129H187.729C187.729 123.303 188.451 125.022 191.546 125.084C193.61 125.084 194.579 123.848 194.579 122.926C194.456 121.459 192.64 121.333 190.7 121.018C188.76 120.704 187.11 120.348 185.913 119.719C184.386 118.923 183.354 117.204 183.354 115.234C183.354 111.901 186.202 109.261 190.948 109.261C195.549 109.261 198.459 111.713 198.768 115.36H194.146C194.105 114.375 193.919 112.824 191.195 112.824C189.359 112.824 188.141 113.201 188.038 114.5C188.038 116.408 191.856 116.282 194.827 117.078C197.675 117.812 199.49 119.614 199.49 122.129C199.49 126.761 195.797 128.543 191.237 128.543Z" fill="white"/>
<path d="M121.74 80.9666L137.691 71.6191L155.581 103.099H138.888V107.71H134.348V103.078L121.74 80.9666Z" fill="white"/>
<path d="M122.153 128.543C116.87 128.543 112.578 124.162 112.578 118.86C112.578 113.494 116.87 109.261 122.153 109.261C124.154 109.261 125.97 109.806 127.559 110.916V103.099H132.098V128.102H127.559V126.866C125.97 127.914 124.154 128.543 122.153 128.543ZM116.932 118.86C116.932 121.752 119.367 124.162 122.276 124.162C125.124 124.162 127.559 121.752 127.559 118.86C127.559 115.967 125.124 113.494 122.276 113.494C119.367 113.494 116.932 115.967 116.932 118.86Z" fill="white"/>
<path d="M155.703 103.099H160.181V128.102H155.703V126.866C154.176 127.914 152.299 128.543 150.235 128.543C145.015 128.543 140.723 124.162 140.723 118.86C140.723 113.494 145.015 109.261 150.235 109.261C152.299 109.261 154.115 109.806 155.703 110.916V103.099ZM145.138 118.86C145.138 121.752 147.573 124.162 150.359 124.162C153.269 124.162 155.703 121.752 155.703 118.86C155.703 115.967 153.269 113.494 150.359 113.494C147.573 113.494 145.138 115.967 145.138 118.86Z" fill="white"/>
<path d="M171.222 128.543C166.022 128.543 161.709 124.162 161.709 118.86C161.709 113.494 166.022 109.261 171.222 109.261C173.223 109.261 175.101 109.806 176.628 110.916V109.428H181.167V128.102H176.628V126.866C175.101 127.914 173.285 128.543 171.222 128.543ZM166.125 118.86C166.125 121.752 168.56 124.162 171.407 124.162C174.255 124.162 176.628 121.752 176.628 118.86C176.628 115.967 174.255 113.494 171.407 113.494C168.56 113.494 166.125 115.967 166.125 118.86Z" fill="white"/>
<path d="M95.8843 118.86C95.8843 121.752 98.3192 124.162 101.167 124.162C104.076 124.162 106.511 121.752 106.511 118.86C106.511 115.967 104.076 113.494 101.167 113.494C98.3192 113.494 95.8843 115.967 95.8843 118.86ZM101.043 128.543C95.8224 128.543 91.5098 124.162 91.5098 118.86C91.5098 113.494 95.8224 109.261 101.043 109.261C103.045 109.261 104.922 109.806 106.511 110.916V109.428H110.989V128.102H106.511V126.866C104.984 127.914 103.106 128.543 101.043 128.543Z" fill="white"/>
</svg>
