<svg width="291" height="182" viewBox="0 0 291 182" fill="none" xmlns="http://www.w3.org/2000/svg">
<path fill-rule="evenodd" clip-rule="evenodd" d="M145.498 138.415C141.796 138.415 139.893 136.029 139.893 136.029C136.85 135.898 113.07 135.964 113.07 135.964L110.755 116.647C110.755 116.647 96.1078 106.443 94.9179 105.265C87.8872 73.7359 113.3 43.6807 145.499 43.6807C177.699 43.6807 203.112 73.7367 196.081 105.265C194.89 106.442 180.244 116.647 180.244 116.647L177.928 135.964C177.928 135.964 154.149 135.898 151.106 136.029C151.106 136.029 149.203 138.415 145.498 138.415Z" fill="white"/>
<path fill-rule="evenodd" clip-rule="evenodd" d="M145.533 109.039L143.286 53.2795C140.577 52.7327 133.663 53.3889 129.959 56.1222L140.741 109.258L126.032 58.3079C122.505 58.2654 115.39 64.1592 114.86 65.9067L136.318 111.116L112.206 69.7879C109.828 70.6628 104.63 80.12 105.459 81.2192L132.336 113.74L104.685 85.9698C104.685 85.9698 101.09 91.3821 103.434 100.549L119.053 111.698L121.009 126.93H140.158C140.158 126.93 143.291 129.866 145.514 129.866C147.736 129.866 150.869 126.931 150.869 126.931H170.019L171.975 111.699L187.593 100.549C189.938 91.3821 186.343 85.9698 186.343 85.9698L158.692 113.74L185.569 81.2199C186.398 80.1208 181.199 70.6636 178.822 69.7887L154.71 111.117L176.167 65.9083C175.638 64.1616 168.522 58.267 164.996 58.3095L150.285 109.258L161.07 56.1222C157.365 53.3889 150.452 52.7327 147.742 53.2795L145.533 109.039Z" fill="white" fill-opacity="0.5"/>
</svg>
