<svg width="291" height="182" viewBox="0 0 291 182" fill="none" xmlns="http://www.w3.org/2000/svg">
<path d="M42 99.0302V96.6789H49.9496V99.6696C49.9434 100.062 50.0185 100.452 50.1699 100.812C50.3213 101.173 50.5454 101.495 50.8271 101.758C51.1089 102.021 51.4417 102.219 51.8033 102.337C52.1648 102.456 52.5467 102.493 52.9232 102.446C53.5663 102.536 54.2188 102.373 54.7511 101.988C55.2835 101.603 55.6569 101.025 55.7973 100.369C56.0101 99.6165 55.992 98.8143 55.7455 98.0732C54.207 94.0637 43.6938 92.2487 42.3583 85.9993C42.0864 84.6265 42.0695 83.2125 42.3085 81.8331C43.1285 76.815 47.384 75 52.6664 75C56.8721 75 62.6681 76.0147 62.6681 82.7426V84.933H55.2838V83.0107C55.3061 82.6319 55.2489 82.2525 55.1163 81.8986C54.9837 81.5448 54.7787 81.2249 54.5155 80.9609C54.2522 80.697 53.9369 80.4952 53.5913 80.3695C53.2457 80.2437 52.8779 80.197 52.5132 80.2326C51.8904 80.1615 51.2647 80.3365 50.761 80.7227C50.2573 81.1089 49.9128 81.6778 49.7963 82.3157C49.7133 82.8483 49.7309 83.3926 49.848 83.9183C50.7178 87.4946 61.9515 89.4189 63.1836 95.8808C63.4915 97.5554 63.5083 99.2737 63.2333 100.955C62.5148 106.078 58.1041 108 52.7719 108C47.175 108 42 105.917 42 99.0302ZM138.318 98.925V96.5737H146.166V99.5108C146.154 99.9001 146.223 100.288 146.368 100.647C146.514 101.006 146.733 101.329 147.009 101.592C147.286 101.856 147.615 102.054 147.973 102.174C148.33 102.294 148.709 102.333 149.082 102.287C149.72 102.385 150.369 102.231 150.902 101.855C151.434 101.479 151.81 100.908 151.954 100.257C152.167 99.5227 152.15 98.7371 151.905 98.0134C150.416 94.0637 140.004 92.2384 138.673 85.9993C138.4 84.6447 138.383 83.2482 138.621 81.8867C139.447 76.9222 143.708 75.1073 148.883 75.1073C153.039 75.1073 158.781 76.1756 158.781 82.7962V84.933H151.449V83.0644C151.472 82.6902 151.418 82.3151 151.289 81.9646C151.16 81.6142 150.96 81.2965 150.702 81.0332C150.445 80.7699 150.135 80.5671 149.795 80.4386C149.455 80.3101 149.093 80.2588 148.732 80.2883C148.12 80.2042 147.501 80.3686 147.004 80.7469C146.507 81.1252 146.17 81.6881 146.065 82.3178C145.981 82.8502 145.998 83.3945 146.115 83.9203C146.935 87.4967 158.057 89.3674 159.297 95.7735C159.604 97.4302 159.621 99.1308 159.347 100.794C158.628 105.921 154.269 107.79 148.997 107.79C143.449 107.794 138.318 105.704 138.318 98.925ZM166.424 100.049C166.353 99.3745 166.336 98.6949 166.375 98.0175V75.9075H173.862V98.7084C173.853 99.101 173.869 99.4939 173.912 99.8841C174.079 100.527 174.446 101.095 174.956 101.5C175.466 101.905 176.091 102.124 176.733 102.124C177.376 102.124 178.001 101.905 178.511 101.5C179.021 101.095 179.388 100.527 179.555 99.8841C179.599 99.494 179.617 99.1011 179.607 98.7084V75.9075H187.098V98.0134C187.098 98.6012 187.047 99.7232 187.047 100.045C186.535 105.82 182.174 107.676 176.738 107.676C171.303 107.676 166.938 105.814 166.424 100.049ZM228.074 99.7273C227.998 99.0503 227.963 98.369 227.971 97.6875V84.7185C227.971 84.1843 228.02 83.2232 228.072 82.6869C228.739 76.9223 233.201 75.1073 238.484 75.1073C243.717 75.1073 248.33 76.9222 248.846 82.689C248.907 83.3642 248.924 84.043 248.895 84.7206V85.725H241.408V84.0255C241.409 83.6312 241.375 83.2377 241.306 82.8499C241.109 82.1988 240.717 81.6299 240.187 81.226C239.656 80.8221 239.015 80.6042 238.356 80.6042C237.698 80.6042 237.057 80.8221 236.526 81.226C235.996 81.6299 235.604 82.1988 235.407 82.8499C235.32 83.3256 235.286 83.8099 235.305 84.2936V98.3888C235.297 98.7814 235.314 99.1742 235.357 99.5644C235.535 100.264 235.947 100.874 236.52 101.286C237.093 101.698 237.79 101.885 238.484 101.812C239.166 101.888 239.85 101.701 240.408 101.288C240.966 100.874 241.358 100.263 241.509 99.5706C241.578 99.183 241.596 98.7874 241.561 98.3949V93.9028H238.536V89.4169H248.999V97.6875C249.006 98.3656 248.972 99.0435 248.895 99.717C248.384 105.323 243.721 107.299 238.484 107.299C233.247 107.299 228.586 105.333 228.074 99.7273ZM123.703 106.717L123.504 78.2031L118.369 106.717H110.881L105.801 78.2031L105.602 106.717H98.2122L98.8272 75.9611H110.881L114.625 99.9913L118.369 75.9611H130.42L131.087 106.717H123.703ZM84.3134 106.717L80.3127 78.2031L76.2086 106.717H68.2093L73.647 75.9611H86.8292L92.2669 106.717H84.3134ZM209.661 106.397L202.225 80.8204L202.635 106.395H195.35V75.9611H206.325L213.292 100.738L212.892 75.9611H220.226V106.4L209.661 106.397Z" fill="white"/>
</svg>
