<svg width="104" height="95" viewBox="0 0 104 95" fill="none" xmlns="http://www.w3.org/2000/svg">
<path d="M51.7588 3C81.8024 3 105.46 30.7417 99.623 59.9287C99.5842 59.9585 99.5442 59.9915 99.501 60.0244C99.0111 60.3974 98.3609 60.8786 97.5977 61.4346C96.0734 62.5449 94.1438 63.922 92.2422 65.2686C90.3425 66.6138 88.4791 67.9232 87.0898 68.8965C86.3955 69.383 85.8197 69.7848 85.418 70.0654C85.2171 70.2057 85.0593 70.3159 84.9521 70.3906C84.8987 70.4279 84.8576 70.4564 84.8301 70.4756C84.8164 70.4851 84.8057 70.4923 84.7988 70.4971C84.7954 70.4994 84.7927 70.5018 84.791 70.5029L84.7891 70.5039L86.5039 72.9658L84.7891 70.5049L83.6855 71.2734L83.5254 72.6084L81.5264 89.2773C81.1864 89.2767 80.8195 89.2761 80.4297 89.2754C78.1518 89.2713 75.0827 89.2666 71.918 89.2666C65.6442 89.2666 58.8431 89.2827 57.2373 89.3516L55.8721 89.4102L55.0557 90.4336C55.0428 90.4477 55.0072 90.4871 54.9482 90.543C54.8286 90.6563 54.6245 90.8301 54.3418 91.0098C53.7863 91.3627 52.9343 91.7344 51.7578 91.7344C50.5829 91.7343 49.7321 91.3627 49.1768 91.0098C48.8944 90.8303 48.691 90.6563 48.5713 90.543L48.4629 90.4336L47.6465 89.4102L46.2812 89.3516L45.4473 89.3281C42.9842 89.279 37.0899 89.2666 31.5996 89.2666C28.4346 89.2666 25.3649 89.2713 23.0869 89.2754C22.697 89.2761 22.3303 89.2767 21.9902 89.2773L19.9932 72.6094L19.833 71.2734L18.7295 70.5039H18.7285L18.7275 70.5029C18.7259 70.5018 18.7231 70.4994 18.7197 70.4971C18.7128 70.4923 18.7021 70.4851 18.6885 70.4756C18.661 70.4564 18.6198 70.4279 18.5664 70.3906C18.4593 70.3159 18.3015 70.2057 18.1006 70.0654C17.6988 69.7849 17.1231 69.3829 16.4287 68.8965C15.0395 67.9232 13.176 66.6137 11.2764 65.2686C9.37469 63.922 7.44504 62.5449 5.9209 61.4346C5.15753 60.8785 4.50729 60.3974 4.01758 60.0244C3.97408 59.9913 3.93362 59.9587 3.89453 59.9287C-1.94264 30.741 21.7161 3.00008 51.7588 3ZM48.4756 90.4492C48.4786 90.4528 48.4816 90.4573 48.4854 90.4619C48.4873 90.4643 48.4901 90.4671 48.4922 90.4697C48.4932 90.471 48.4941 90.4723 48.4951 90.4736L48.4961 90.4756L48.4736 90.4473L48.4756 90.4492ZM55.0215 90.4756L55.0234 90.4736C55.0245 90.4724 55.0254 90.4709 55.0264 90.4697C55.0285 90.4671 55.0313 90.4643 55.0332 90.4619C55.0369 90.4573 55.04 90.4528 55.043 90.4492L55.0439 90.4473L55.0215 90.4756Z" stroke="white" stroke-width="6"/>
<path fill-rule="evenodd" clip-rule="evenodd" d="M51.7929 65.3585L49.5459 9.59888C46.8365 9.05206 39.9228 9.70824 36.2185 12.4415L47.0012 65.5772L32.292 14.6272C28.7652 14.5848 21.6493 20.4786 21.12 22.226L42.5781 67.4348L18.4655 26.1073C16.088 26.9822 10.8896 36.4393 11.719 37.5385L38.596 70.0596L10.9445 42.2891C10.9445 42.2891 7.35002 47.7014 9.6941 56.8683L25.3131 68.0171L27.2688 83.2493H46.4178C46.4178 83.2493 49.5507 86.1856 51.7738 86.1856C53.9961 86.1856 57.129 83.2501 57.129 83.2501H76.2788L78.2345 68.0179L93.8527 56.8683C96.1976 47.7014 92.603 42.2891 92.603 42.2891L64.9516 70.0596L91.8286 37.5393C92.658 36.4401 87.4588 26.9829 85.0813 26.108L60.9694 67.4364L82.4268 22.2276C81.8982 20.4809 74.7816 14.5863 71.2556 14.6288L56.5447 65.5772L67.3299 12.4415C63.6247 9.70824 56.7119 9.05206 54.0017 9.59888L51.7929 65.3585Z" fill="white" fill-opacity="0.6"/>
</svg>
