<svg width="291" height="182" viewBox="0 0 291 182" fill="none" xmlns="http://www.w3.org/2000/svg">
<path d="M112 97.5416C112.167 97.2916 112.5 96.6666 112.625 96.4166C112.833 96.0833 113.333 95.9583 113.833 96.2916C113.833 96.2916 115.75 97.8333 118 97.8333C119.833 97.8333 120.875 96.9166 120.875 95.7083C120.875 94.1666 119.542 93.4166 116.958 92.1249C114.583 90.9583 111.875 89.4166 111.875 86.375C111.875 84.5 113.375 81.75 117.542 81.75C119.833 81.75 121.625 82.5416 122.5 83.125C122.917 83.4166 123.042 84 122.792 84.5L122.417 85.2083C122.167 85.6666 121.583 85.8333 121.125 85.6249C121.125 85.6249 119.208 84.5416 117.542 84.5416C115.542 84.5416 115 85.5833 115 86.3333C115 87.7916 116.5 88.4583 118.292 89.3749C121.375 90.8333 124.125 92.2083 124.125 95.4166C124.125 97.9999 121.625 100.458 117.958 100.458C115.875 100.5 113.792 99.7916 112.167 98.4583C112 98.2916 111.875 97.8333 112 97.5416ZM144.541 97.5833C147.791 97.5833 150.333 94.7083 150.333 91.0833C150.333 87.5416 147.791 84.7083 144.541 84.7083C141.291 84.7083 138.75 87.5416 138.75 91.0833C138.75 94.6666 141.291 97.5833 144.541 97.5833ZM144.541 81.7916C149.5 81.7916 153.416 86.0416 153.416 91.0833C153.416 96.2083 149.5 100.458 144.541 100.458C139.583 100.458 135.667 96.2083 135.667 91.0833C135.667 86.0416 139.583 81.7916 144.541 81.7916ZM166.791 83.0416C166.791 82.5833 167.208 82.2083 167.625 82.2083H168.458C168.875 82.2083 169.083 82.375 169.166 82.75L169.583 84.125C169.583 84.125 172.125 81.75 175.791 81.75C180.958 81.75 182.708 85.125 182.708 89.75V99.1249C182.708 99.5833 182.291 99.9583 181.875 99.9583H180.458C180 99.9583 179.625 99.5833 179.625 99.1249V89.75C179.625 86.375 178.125 84.7083 175.625 84.7083C172.291 84.7083 169.875 87.25 169.875 87.25V99.1249C169.875 99.5833 169.458 99.9583 169.041 99.9583H167.666C167.208 99.9583 166.833 99.5833 166.833 99.1249L166.791 83.0416ZM196.25 83.0416C196.25 82.5833 196.666 82.2083 197.083 82.2083H197.916C198.333 82.2083 198.541 82.375 198.625 82.75L199.041 84.125C199.041 84.125 201.583 81.75 205.25 81.75C210.416 81.75 212.166 85.125 212.166 89.75V99.1249C212.166 99.5833 211.75 99.9583 211.333 99.9583H209.916C209.458 99.9583 209.083 99.5833 209.083 99.1249V89.75C209.083 86.375 207.583 84.7083 205.083 84.7083C201.75 84.7083 199.333 87.25 199.333 87.25V99.1249C199.333 99.5833 198.916 99.9583 198.5 99.9583H197.125C196.666 99.9583 196.291 99.5833 196.291 99.1249L196.25 83.0416ZM239.416 89.3749C239.291 86.7916 237.125 84.4583 234.416 84.4583C231.583 84.4166 229.125 86.5416 228.833 89.3749C228.791 89.3749 239.416 89.3749 239.416 89.3749ZM234.416 81.75C238.75 81.625 242.375 85.0416 242.5 89.3749C242.5 89.5416 242.5 89.7083 242.5 89.8749C242.5 90.2083 242.458 90.7916 242.416 91.0833C242.375 91.4999 242.041 91.8333 241.625 91.8333H228.791C228.958 94.8333 231.583 97.6249 234.75 97.6249C236.625 97.6249 238.125 96.9166 239.166 96.2916C239.791 95.9583 240.041 95.7083 240.416 96.2083L241.166 97.2499C241.458 97.6666 241.666 97.9166 241 98.4166C239.083 99.7916 236.791 100.5 234.458 100.458C229.083 100.458 225.75 96.2499 225.75 91.1249C225.708 86.0833 229.041 81.7916 234.416 81.75ZM255.041 83.0416C255.041 82.5833 255.458 82.2083 255.875 82.2083H256.708C257.125 82.2083 257.333 82.375 257.416 82.75L257.833 84.125C257.833 84.125 260.375 81.75 264.083 81.75C269.25 81.75 271 85.125 271 89.75V99.1249C271 99.5833 270.583 99.9583 270.166 99.9583H268.75C268.291 99.9583 267.916 99.5833 267.916 99.1249V89.75C267.916 86.375 266.416 84.7083 263.916 84.7083C260.583 84.7083 258.166 87.25 258.166 87.25V99.1249C258.166 99.5833 257.75 99.9583 257.333 99.9583H255.958C255.5 99.9583 255.125 99.5833 255.125 99.1249L255.041 83.0416ZM55.5416 123.375C38.25 123.375 24.2083 109.375 24.2083 92.0833C24.2083 74.7916 38.25 60.75 55.5416 60.7917C72.8333 60.7917 86.8749 74.7916 86.8749 92.0833C86.8749 109.375 72.8333 123.375 55.5416 123.375ZM55.1666 57C36.2916 57 21 72.2916 21 91.1249C21 110 36.2916 125.25 55.1666 125.25C74.0416 125.25 89.3332 109.958 89.3332 91.1249C89.3332 72.2916 74.0416 57 55.1666 57Z" fill="white"/>
</svg>
