<svg width="291" height="182" viewBox="0 0 291 182" fill="none" xmlns="http://www.w3.org/2000/svg">
<path d="M98.6342 116.405H80V120.572H86.8777V138.341H91.757V120.572H98.6347L98.6342 116.405ZM116.856 130.894C116.481 131.852 115.87 132.697 115.082 133.349C114.293 134.002 113.353 134.439 112.351 134.621C111.977 134.687 111.598 134.721 111.219 134.722C110.834 134.722 110.456 134.685 110.09 134.621C109.088 134.44 108.148 134.002 107.359 133.35C106.571 132.698 105.961 131.852 105.587 130.894C105.153 129.772 104.93 128.578 104.931 127.373C104.931 126.131 105.164 124.94 105.587 123.85C105.962 122.892 106.572 122.047 107.36 121.395C108.148 120.743 109.088 120.305 110.09 120.124C110.837 119.985 111.603 119.985 112.35 120.124C113.353 120.305 114.293 120.742 115.081 121.394C115.87 122.046 116.48 122.891 116.855 123.849C117.729 126.114 117.729 128.629 116.856 130.894ZM111.218 115.746C104.873 115.746 99.7234 120.951 99.7234 127.373C99.7234 133.791 104.873 138.997 111.218 138.997C117.568 138.997 122.713 133.791 122.713 127.374C122.713 120.951 117.567 115.746 111.218 115.746ZM122.79 116.405H128.537L133.904 125.836L139.271 116.405H145.016L136.343 130.225V138.341H131.465V130.225L122.79 116.405ZM156.602 134.724C156.985 134.724 157.366 134.685 157.73 134.621C158.733 134.44 159.673 134.003 160.461 133.351C161.25 132.699 161.86 131.854 162.234 130.896C163.114 128.632 163.114 126.116 162.234 123.852C161.86 122.894 161.25 122.048 160.461 121.396C159.673 120.743 158.733 120.306 157.73 120.125C156.982 119.99 156.216 119.99 155.467 120.125C154.465 120.306 153.525 120.743 152.737 121.396C151.949 122.048 151.34 122.893 150.966 123.851C150.531 124.973 150.307 126.167 150.307 127.372C150.307 128.616 150.541 129.803 150.966 130.895C151.34 131.853 151.949 132.698 152.737 133.351C153.525 134.003 154.465 134.44 155.467 134.62C155.842 134.688 156.221 134.723 156.602 134.724ZM145.105 127.372C145.105 120.951 150.249 115.743 156.601 115.743C162.946 115.743 168.096 120.949 168.096 127.372C168.095 133.789 162.946 139 156.601 139C150.249 139 145.105 133.789 145.105 127.372ZM201.375 129.658L198.181 120.992L194.984 129.658H201.375ZM202.79 133.496H193.56L191.784 138.327H186.356L195.141 116.389H201.212L210 138.327H204.578L202.79 133.496ZM187.789 116.404H169.156V120.572H176.037L176.035 138.34H180.916L180.914 120.572H187.789V116.404ZM166.36 47.0778C160.399 45.13 153.01 44 145 44C136.99 44 129.601 45.1306 123.64 47.0778C107.807 52.2279 96.9403 62.9057 96.9403 75.2159C96.9403 92.5516 118.425 106.683 145 106.683C171.514 106.683 193.06 92.6143 193.06 75.2159C193.06 62.9057 182.193 52.2279 166.36 47.0778ZM145 93.1794C141.026 93.1794 137.797 85.3282 137.611 75.4047C139.971 75.6559 142.454 75.7186 145 75.7186C147.546 75.7186 150.03 75.5931 152.389 75.4047C152.203 85.3282 148.974 93.1794 145 93.1794ZM138.108 67.6791C139.163 60.7074 141.833 55.8084 145 55.8084C148.105 55.8084 150.775 60.7074 151.892 67.6791C149.719 67.8675 147.359 67.993 145 67.993C142.641 67.993 140.343 67.8675 138.108 67.6791ZM156.115 67.1141C154.5 56.2479 150.154 48.3967 145 48.3967C139.847 48.3967 135.5 56.1851 133.885 67.1136C124.137 65.5435 117.307 62.0891 117.307 58.0063C117.307 52.479 129.726 48.02 145 48.02C160.275 48.02 172.693 52.479 172.693 58.0063C172.693 62.0891 165.863 65.6068 156.115 67.1141ZM103.957 74.0848C103.957 68.7464 106.006 63.7841 109.546 59.4507C109.483 59.7646 109.483 60.0785 109.483 60.3296C109.483 67.0503 119.418 72.7031 133.264 74.8387V76.3459C133.264 88.7821 136.68 99.3339 141.399 102.977C120.411 101.721 103.957 89.2854 103.957 74.0853L103.957 74.0848ZM148.602 103.04C153.32 99.3972 156.736 88.8449 156.736 76.4087V74.902C170.582 72.8287 180.517 67.113 180.517 60.3924C180.517 60.0785 180.517 59.7646 180.454 59.5135C183.994 63.7841 186.043 68.8092 186.043 74.1481C186.043 89.2849 169.589 101.721 148.601 103.04H148.602Z" fill="white"/>
</svg>
