<svg width="291" height="182" viewBox="0 0 291 182" fill="none" xmlns="http://www.w3.org/2000/svg">
<path d="M145.551 40.0396C129.23 40.0396 116.576 53.3119 116.576 68.8312C116.576 82.581 125.545 89.9861 125.545 89.9861C126.433 90.768 126.208 91.1745 125.577 91.8142C125.577 91.8142 116.576 100.008 116.576 112.68C116.576 130.049 130.462 141.777 145.551 141.777C162.424 141.777 174.425 128.046 174.425 112.883C174.425 99.8327 165.783 92.129 165.783 92.129C164.565 90.9552 164.568 90.7603 165.783 89.6873C165.783 89.6873 174.425 82.4193 174.425 68.8312C174.425 53.4792 162.099 40.0396 145.551 40.0396ZM139.102 54.9758C139.927 54.9758 140.651 55.4017 141.072 56.0441C141.492 55.4009 142.219 54.9758 143.045 54.9758C143.992 54.9758 144.809 55.5357 145.183 56.3429C145.557 55.5363 146.371 54.9758 147.318 54.9758C148.264 54.9758 149.081 55.5343 149.456 56.3397C149.831 55.5343 150.648 54.9758 151.594 54.9758C152.895 54.9758 153.948 56.0298 153.948 57.3317C153.948 58.6336 152.895 59.6907 151.594 59.6907C150.648 59.6907 149.831 59.1322 149.456 58.3268C149.081 59.1322 148.264 59.6907 147.318 59.6907C146.371 59.6907 145.557 59.1303 145.183 58.3236C144.809 59.1309 143.992 59.6907 143.045 59.6907C142.219 59.6907 141.492 59.2657 141.072 58.6225C140.904 58.8784 140.691 59.1006 140.439 59.2742C141.055 59.6995 141.459 60.4088 141.459 61.2136C141.459 62.0134 141.061 62.7204 140.452 63.1466C141.061 63.5728 141.459 64.2798 141.459 65.0796C141.459 65.8794 141.061 66.5864 140.452 67.0126C140.638 67.1431 140.803 67.3023 140.945 67.48C141.376 66.9379 142.041 66.5898 142.787 66.5898C143.651 66.5898 144.404 67.0563 144.814 67.7502C145.224 67.0556 145.98 66.5898 146.844 66.5898C147.698 66.5898 148.446 67.0443 148.859 67.7248C149.272 67.0443 150.019 66.5898 150.873 66.5898C152.174 66.5898 153.23 67.6437 153.23 68.9456C153.23 70.2475 152.174 71.3046 150.873 71.3046C150.019 71.3046 149.272 70.8501 148.859 70.1696C148.446 70.8501 147.698 71.3046 146.844 71.3046C145.98 71.3046 145.224 70.8389 144.814 70.1442C144.404 70.8381 143.651 71.3046 142.787 71.3046C142.041 71.3046 141.376 70.9565 140.945 70.4144C140.8 70.5958 140.63 70.7529 140.439 70.885C141.055 71.3102 141.459 72.019 141.459 72.8243C141.459 73.6297 141.055 74.3417 140.439 74.7669C141.055 75.1922 141.459 75.9014 141.459 76.7063C141.459 77.5116 141.055 78.2204 140.439 78.6456C140.688 78.8178 140.902 79.0348 141.068 79.2878C141.489 78.6413 142.217 78.2132 143.045 78.2132C143.992 78.2132 144.809 78.773 145.183 79.5803C145.557 78.7737 146.371 78.2132 147.318 78.2132C148.264 78.2132 149.081 78.7717 149.456 79.5771C149.831 78.7717 150.648 78.2132 151.594 78.2132C152.895 78.2132 153.948 79.2704 153.948 80.5723C153.948 81.8742 152.895 82.9281 151.594 82.9281C150.648 82.9281 149.83 82.37 149.456 81.5642C149.082 82.37 148.264 82.9281 147.318 82.9281C146.37 82.9281 145.557 82.3681 145.183 81.561C144.809 82.3687 143.993 82.9281 143.045 82.9281C142.222 82.9281 141.499 82.5053 141.078 81.8662C140.658 82.5128 139.93 82.9408 139.102 82.9408C137.801 82.9408 136.748 81.8869 136.748 80.585C136.748 79.7801 137.152 79.0709 137.767 78.6456C137.152 78.2204 136.748 77.5116 136.748 76.7063C136.748 75.9014 137.152 75.1922 137.767 74.7669C137.152 74.3417 136.748 73.6297 136.748 72.8243C136.748 72.019 137.152 71.3102 137.767 70.885C137.152 70.4597 136.748 69.7504 136.748 68.9456C136.748 68.1458 137.146 67.4388 137.755 67.0126C137.146 66.5864 136.748 65.8794 136.748 65.0796C136.748 64.2798 137.146 63.5728 137.755 63.1466C137.146 62.7204 136.748 62.0134 136.748 61.2136C136.748 60.4088 137.152 59.6995 137.767 59.2742C137.152 58.849 136.748 58.137 136.748 57.3317C136.748 56.0298 137.801 54.9758 139.102 54.9758ZM139.102 98.885C139.927 98.885 140.651 99.3108 141.072 99.9532C141.492 99.31 142.219 98.885 143.045 98.885C143.992 98.885 144.809 99.4448 145.183 100.252C145.557 99.4454 146.371 98.885 147.318 98.885C148.264 98.885 149.081 99.4435 149.456 100.249C149.831 99.4435 150.648 98.885 151.594 98.885C152.895 98.885 153.948 99.9421 153.948 101.244C153.948 102.546 152.895 103.6 151.594 103.6C150.648 103.6 149.831 103.041 149.456 102.236C149.081 103.041 148.264 103.6 147.318 103.6C146.371 103.6 145.557 103.039 145.183 102.233C144.809 103.04 143.992 103.6 143.045 103.6C142.219 103.6 141.492 103.175 141.072 102.532C140.905 102.786 140.693 103.01 140.443 103.183C141.057 103.609 141.459 104.319 141.459 105.123C141.459 105.923 141.059 106.63 140.449 107.056C141.059 107.482 141.459 108.188 141.459 108.989C141.459 109.789 141.059 110.496 140.449 110.922C140.637 111.053 140.802 111.21 140.945 111.389C141.376 110.847 142.041 110.499 142.787 110.499C143.651 110.499 144.404 110.965 144.814 111.659C145.224 110.965 145.98 110.499 146.844 110.499C147.698 110.499 148.446 110.953 148.859 111.634C149.272 110.953 150.019 110.499 150.873 110.499C152.174 110.499 153.23 111.556 153.23 112.858C153.23 114.16 152.174 115.214 150.873 115.214C150.019 115.214 149.272 114.759 148.859 114.079C148.446 114.759 147.698 115.214 146.844 115.214C145.98 115.214 145.224 114.748 144.814 114.053C144.404 114.747 143.651 115.214 142.787 115.214C142.041 115.214 141.376 114.866 140.945 114.324C140.8 114.505 140.631 114.665 140.439 114.797C141.055 115.223 141.459 115.932 141.459 116.737C141.459 117.541 141.057 118.251 140.443 118.676C141.057 119.101 141.459 119.811 141.459 120.615C141.459 121.42 141.055 122.129 140.439 122.555C140.689 122.727 140.901 122.947 141.068 123.2C141.489 122.554 142.217 122.126 143.045 122.126C143.992 122.126 144.809 122.685 145.183 123.493C145.557 122.686 146.371 122.126 147.318 122.126C148.264 122.126 149.081 122.684 149.456 123.489C149.831 122.684 150.648 122.126 151.594 122.126C152.895 122.126 153.948 123.179 153.948 124.481C153.948 125.783 152.895 126.84 151.594 126.84C150.648 126.84 149.831 126.282 149.456 125.477C149.081 126.282 148.264 126.84 147.318 126.84C146.371 126.84 145.557 126.28 145.183 125.473C144.809 126.281 143.992 126.84 143.045 126.84C142.222 126.84 141.499 126.418 141.078 125.779C140.658 126.425 139.93 126.853 139.102 126.853C137.801 126.853 136.748 125.796 136.748 124.494C136.748 123.689 137.152 122.98 137.767 122.555C137.152 122.129 136.748 121.42 136.748 120.615C136.748 119.811 137.15 119.101 137.764 118.676C137.15 118.251 136.748 117.541 136.748 116.737C136.748 115.932 137.152 115.223 137.767 114.797C137.152 114.372 136.748 113.663 136.748 112.858C136.748 112.057 137.147 111.348 137.758 110.922C137.148 110.496 136.748 109.789 136.748 108.989C136.748 108.188 137.147 107.482 137.758 107.056C137.148 106.63 136.748 105.923 136.748 105.123C136.748 104.319 137.15 103.609 137.764 103.183C137.15 102.758 136.748 102.048 136.748 101.244C136.748 99.9421 137.801 98.885 139.102 98.885Z" fill="white"/>
</svg>
