<svg xmlns:mydata="http://www.w3.org/2000/svg" mydata:contrastcolor="ffffff" mydata:template="Contrast" mydata:presentation="2.5" mydata:layoutType="undefined" mydata:specialFontId="undefined" mydata:id1="782" mydata:id2="865" mydata:companyName="designwithkat" mydata:companyTagline="" version="1.1" xmlns="http://www.w3.org/2000/svg" xmlns:xlink="http://www.w3.org/1999/xlink" width="420" height="55" viewBox="65 207 420 55"><g fill="#130061" fill-rule="nonzero" stroke="none" stroke-width="1" stroke-linecap="butt" stroke-linejoin="miter" stroke-miterlimit="10" stroke-dasharray="" stroke-dashoffset="0" font-family="none" font-weight="none" font-size="none" text-anchor="none" style="mix-blend-mode: normal"><g data-paper-data="{&quot;isGlobalGroup&quot;:true,&quot;bounds&quot;:{&quot;x&quot;:65,&quot;y&quot;:207.86981195340198,&quot;width&quot;:420,&quot;height&quot;:54.260376093196015}}"><g data-paper-data="{&quot;isPrimaryText&quot;:true}"><path d="M65,236.42055c0,9.53447 7.00599,13.59057 13.16916,13.59057c3.74004,0 7.2167,-1.52762 8.53361,-4.21413l0.52677,4.21413c4.47751,-0.94818 7.32205,-1.10621 9.6925,-1.10621l3.21327,0.05268v-1.36959l-1.79101,-0.42141c-1.26424,-0.26338 -2.10707,-1.31692 -2.10707,-2.58115l0.05268,-36.71561c-5.6364,1.79101 -8.00685,1.26424 -13.85395,1.5803v1.36959l0.8955,0.21071c1.73833,0.42141 2.94989,1.89636 2.94989,3.68736v7.95417c-1.89636,-0.94818 -3.95075,-1.15889 -5.53105,-1.10621c-8.48094,0 -15.75031,6.00514 -15.75031,14.85481zM82.33061,222.98801c2.63383,0.10535 3.95075,2.00171 3.95075,7.05867v14.53875c-0.63212,2.05439 -2.84454,2.68651 -4.63554,2.2651c-9.06038,-2.00171 -7.48008,-24.23125 0.6848,-23.86251z" data-paper-data="{&quot;glyphName&quot;:&quot;d&quot;,&quot;glyphIndex&quot;:0,&quot;firstGlyphOfWord&quot;:true,&quot;word&quot;:1}"></path><path d="M117.72931,250.06379c7.4274,0 12.11563,-4.00342 14.01198,-8.95503l-1.36959,-0.52677c-0.79015,3.26595 -5.84711,7.4274 -10.32462,7.4274c-3.89807,0 -7.32205,-3.05524 -7.32205,-12.22098h19.06894c0.05268,-7.11135 -4.0561,-14.27537 -14.06466,-14.27537c-21.22868,0 -21.22868,28.55073 0,28.55073zM117.72931,222.88265c3.10792,0 4.7409,5.68908 4.9516,11.58886h-9.90321c0.21071,-5.95246 1.89636,-11.58886 4.9516,-11.58886z" data-paper-data="{&quot;glyphName&quot;:&quot;e&quot;,&quot;glyphIndex&quot;:1,&quot;word&quot;:1}"></path><path d="M135.79739,249.90576l1.68565,-0.73747c0.47409,-0.21071 1.05353,-0.31606 1.68565,-0.31606c0.52677,0 1.05353,0.10535 1.52762,0.21071c2.2651,0.57944 5.10963,0.94818 7.90149,0.94818c2.84454,0 5.6364,-0.36874 7.84882,-1.26424c3.47666,-1.42227 6.3212,-4.37216 6.3212,-8.16488c0,-4.63554 -4.10878,-6.95332 -8.21755,-8.42826c-4.0561,-1.52762 -10.00856,-2.89721 -10.00856,-5.47837c0,-2.4758 1.89636,-3.63469 4.31948,-3.63469c4.10878,0 9.79785,3.3713 10.11391,9.11306l1.36959,-0.05268v-10.53533l-1.63298,0.6848c-0.47409,0.21071 -1.10621,0.31606 -1.73833,0.31606c-0.47409,0 -1.00086,-0.05268 -1.52762,-0.15803c-1.84368,-0.52677 -4.42484,-0.84283 -6.95332,-0.84283c-4.63554,0 -13.01113,1.47495 -13.01113,8.21755c0,6.16317 6.95332,7.4274 11.00942,9.16573c3.63469,1.5803 6.3212,3.00257 6.3212,5.53105c0,2.79186 -2.21242,4.21413 -5.00428,4.21413c-4.68822,0 -10.95674,-3.89807 -11.2728,-11.37815h-1.36959z" data-paper-data="{&quot;glyphName&quot;:&quot;s&quot;,&quot;glyphIndex&quot;:2,&quot;word&quot;:1}"></path><path d="M164.82222,223.98886l0.8955,0.21071c1.79101,0.36874 2.94989,1.84368 2.94989,3.68736v15.48693c0,3.31863 -1.26424,3.68736 -3.84539,4.21413v1.36959h17.69935v-1.36959c-2.58115,-0.52677 -3.84539,-0.8955 -3.84539,-4.21413v-21.8608c-5.10963,1.52762 -8.37558,1.10621 -13.85395,1.05353zM173.67189,220.09079c3.1606,0 5.74175,-2.58115 5.74175,-5.68908c0,-3.21327 -2.58115,-5.74175 -5.74175,-5.74175c-3.10792,0 -5.74175,2.52848 -5.74175,5.74175c0,3.10792 2.63383,5.68908 5.74175,5.68908z" data-paper-data="{&quot;glyphName&quot;:&quot;i&quot;,&quot;glyphIndex&quot;:3,&quot;word&quot;:1}"></path><path d="M201.53783,241.84624c-6.68993,0 -6.58458,-18.91091 0.05268,-18.91091c6.63726,0 6.63726,18.85823 -0.05268,18.91091zM209.7027,222.93533c0.10535,-1.26424 1.31692,-2.94989 1.79101,-2.94989c0.10535,0 0.15803,0.10535 0.15803,0.31606c0,1.52762 1.31692,3.00257 3.00257,3.00257c1.63298,0 2.94989,-1.36959 2.94989,-3.00257c0,-1.68565 -1.31692,-3.00257 -2.94989,-3.00257c-2.52848,0 -5.32034,1.5803 -6.21584,5.16231c-1.94904,-0.57944 -4.26681,-0.94818 -6.84796,-0.94818c-17.64667,0 -20.22783,15.75031 -7.90149,20.43853c-6.3212,1.15889 -8.58629,4.84625 -6.84796,7.53276c0.8955,1.42227 2.68651,1.84368 4.84625,1.84368c3.3713,0 7.74346,-1.05353 11.43083,-1.05353c3.05524,0 5.68908,0.73747 6.84796,3.31863c2.4758,5.47837 -2.89721,7.16402 -5.53105,7.16402c-2.2651,0 -1.26424,-2.00171 -0.79015,-2.89721c0.94818,-1.94904 -0.10535,-4.26681 -2.00171,-5.10963c-0.52677,-0.21071 -1.05353,-0.31606 -1.52762,-0.31606c-1.52762,0 -2.94989,0.8955 -3.58201,2.37045c-0.57944,1.26424 -0.31606,2.63383 0.36874,3.74004c1.47495,2.42313 4.31948,3.47666 7.4274,3.58201c4.89893,0.10535 10.64068,-2.21242 13.53789,-5.89978c5.10963,-6.58458 0.15803,-13.27451 -9.16573,-12.22098c-5.32034,0.57944 -11.90492,3.74004 -16.27708,3.74004c-0.94818,0 -1.84368,-0.15803 -2.52848,-0.52677c-1.31692,-0.73747 -0.31606,-4.68822 8.58629,-4.10878c0.94818,0.10535 2.00171,0.15803 3.10792,0.15803c17.43596,0 20.12247,-15.53961 8.1122,-20.33318z" data-paper-data="{&quot;glyphName&quot;:&quot;g&quot;,&quot;glyphIndex&quot;:4,&quot;word&quot;:1}"></path><path d="M221.23889,223.98886l0.94818,0.21071c1.73833,0.42141 2.89721,1.84368 2.89721,3.63469l0.05268,15.53961c0,3.3713 -1.31692,3.68736 -3.89807,4.21413v1.36959h17.69935v-1.36959c-2.58115,-0.52677 -3.84539,-0.84283 -3.84539,-4.21413v-12.80042c0,-2.73918 2.42313,-5.16231 4.9516,-5.6364c2.79186,-0.47409 5.74175,0.84283 5.74175,5.47837v12.95845c0,3.3713 -1.31692,3.74004 -3.89807,4.21413v1.36959h17.69935v-1.36959c-2.52848,-0.47409 -3.84539,-0.84283 -3.84539,-4.21413v-12.80042c0,-5.74175 -3.42398,-9.0077 -9.06038,-9.0077c-3.58201,0 -8.74432,1.47495 -12.11563,5.47837l-0.47409,-5.53105c-4.79357,1.42227 -7.74346,1.10621 -12.8531,1.10621z" data-paper-data="{&quot;glyphName&quot;:&quot;n&quot;,&quot;glyphIndex&quot;:5,&quot;word&quot;:1}"></path><path d="M258.11253,223.98886c1.47495,0.26338 4.0561,0.84283 5.68908,5.42569l7.32205,20.43853l4.26681,-1.00086l6.21584,-17.06723l6.42655,18.06808l4.26681,-1.00086l5.84711,-15.96102c1.05353,-2.94989 3.47666,-8.32291 6.5319,-8.90235v-1.36959h-9.74518v1.36959c1.79101,4.31948 2.89721,5.6364 1.73833,8.74432l-2.2651,6.26852l-6.21584,-17.43596l-4.7409,1.05353l-5.95246,16.38243l-4.10878,-11.37815c-0.47409,-1.36959 -0.42141,-3.26595 1.42227,-3.63469v-1.36959h-16.69849z" data-paper-data="{&quot;glyphName&quot;:&quot;w&quot;,&quot;glyphIndex&quot;:6,&quot;word&quot;:1}"></path><path d="M306.89109,223.98886l0.8955,0.21071c1.79101,0.36874 2.94989,1.84368 2.94989,3.68736v15.48693c0,3.31863 -1.26424,3.68736 -3.84539,4.21413v1.36959h17.69935v-1.36959c-2.58115,-0.52677 -3.84539,-0.8955 -3.84539,-4.21413v-21.8608c-5.10963,1.52762 -8.37558,1.10621 -13.85395,1.05353zM315.74076,220.09079c3.1606,0 5.74175,-2.58115 5.74175,-5.68908c0,-3.21327 -2.58115,-5.74175 -5.74175,-5.74175c-3.10792,0 -5.74175,2.52848 -5.74175,5.74175c0,3.10792 2.63383,5.68908 5.74175,5.68908z" data-paper-data="{&quot;glyphName&quot;:&quot;i&quot;,&quot;glyphIndex&quot;:7,&quot;word&quot;:1}"></path><path d="M326.85553,223.93618c0.6848,0 1.15889,0.47409 1.15889,1.15889v17.75202c0,5.00428 4.16145,7.16402 8.1122,7.16402c1.89636,0 4.58287,-0.57944 6.05781,-2.10707l-0.94818,-1.00086c-0.31606,0.57944 -0.8955,0.8955 -1.47495,0.8955c-0.8955,0 -1.73833,-0.73747 -1.79101,-2.31777v-21.54474h3.84539l-0.52677,-2.42313c-1.26424,0.36874 -1.5803,0.47409 -3.26595,0.79015v-7.37473h-1.36959c-1.5803,3.42398 -4.7409,7.32205 -10.64068,7.63811v1.36959z" data-paper-data="{&quot;glyphName&quot;:&quot;t&quot;,&quot;glyphIndex&quot;:8,&quot;word&quot;:1}"></path><path d="M343.39599,210.8197l0.94818,0.21071c1.73833,0.42141 2.89721,1.84368 2.89721,3.63469l0.10535,28.70876c0,3.31863 -1.31692,3.68736 -3.89807,4.21413v1.36959h17.69935v-1.36959c-2.58115,-0.52677 -3.84539,-0.8955 -3.84539,-4.21413v-12.80042c0,-2.73918 2.42313,-5.16231 4.9516,-5.6364c2.79186,-0.47409 5.74175,0.84283 5.74175,5.47837v12.95845c0,3.3713 -1.31692,3.68736 -3.89807,4.21413v1.36959h17.69935v-1.36959c-2.52848,-0.52677 -3.84539,-0.84283 -3.84539,-4.21413v-12.80042c0.05268,-5.74175 -3.47666,-9.0077 -9.06038,-9.0077c-3.42398,0 -8.27023,1.31692 -11.64154,4.84625v-18.54217c-5.53105,1.84368 -7.95417,1.21156 -13.85395,1.5803z" data-paper-data="{&quot;glyphName&quot;:&quot;h&quot;,&quot;glyphIndex&quot;:9,&quot;word&quot;:1}"></path><path d="M401.12958,248.95758v-1.36959c-2.42313,-0.47409 -3.79272,-0.79015 -3.79272,-3.63469v-6.26852l8.69164,11.2728h13.85395v-1.36959c-1.47495,-0.26338 -3.21327,-0.84283 -5.00428,-2.73918l-11.43083,-11.9576l4.16145,-4.42484c1.5803,-1.68565 4.26681,-3.58201 8.797,-4.47751v-1.36959h-13.11648v1.36959c1.42227,1.84368 2.4758,3.68736 -0.57944,7.00599l-5.37302,5.74175v-28.86679c-5.6364,1.79101 -8.00685,1.21156 -13.85395,1.5803v1.31692l0.8955,0.21071c1.79101,0.42141 2.94989,1.89636 2.94989,3.68736v29.28821c0,2.84454 -1.47495,3.1606 -3.89807,3.63469v1.36959z" data-paper-data="{&quot;glyphName&quot;:&quot;k&quot;,&quot;glyphIndex&quot;:10,&quot;word&quot;:1}"></path><path d="M419.98782,241.16144c0,5.58372 5.58372,8.84967 10.64068,8.84967c3.52933,0 6.63726,-1.15889 7.79614,-4.89893l0.63212,4.89893c4.9516,-1.05353 7.95417,-1.10621 12.90577,-1.05353v-1.36959l-1.79101,-0.42141c-1.26424,-0.26338 -2.05439,-1.31692 -2.05439,-2.58115v-14.06466c0,-6.58458 -5.37302,-8.95503 -10.95674,-8.95503c-15.59228,0 -12.8531,9.90321 -7.26938,9.90321c2.52848,0 4.47751,-2.00171 4.47751,-4.42484c0,-1.47495 -1.36959,-3.74004 0.79015,-4.0561c2.52848,-0.36874 2.94989,3.1606 2.94989,5.47837v5.84711c-2.73918,-1.10621 -5.21499,-1.52762 -7.4274,-1.52762c-6.68993,0 -10.69336,4.21413 -10.69336,8.37558zM438.16125,235.8411v3.95075c0,5.10963 -1.31692,7.16402 -3.21327,7.53276c-6.05781,1.15889 -6.79529,-16.32976 3.21327,-11.48351z" data-paper-data="{&quot;glyphName&quot;:&quot;a&quot;,&quot;glyphIndex&quot;:11,&quot;word&quot;:1}"></path><path d="M454.2803,223.93618c0.6848,0 1.15889,0.47409 1.15889,1.15889v19.80641c0,10.42997 7.37473,15.38158 14.80213,15.38158c2.37045,0 4.79357,-0.52677 6.95332,-1.5803c4.58287,-2.15974 8.00685,-6.63726 7.79614,-13.22183c-0.21071,-6.26852 -4.58287,-11.85224 -9.6925,-11.85224c-0.6848,0 -1.42227,0.15803 -2.15974,0.36874c-2.58115,0.57944 -4.42484,2.89721 -4.42484,5.58372c0,3.10792 2.63383,5.74175 5.74175,5.74175c1.84368,0 3.52933,-0.8955 4.58287,-2.2651c0.8955,-1.05353 1.63298,-1.52762 2.2651,-1.52762c1.21156,0 1.94904,1.73833 2.05439,4.16145c0.26338,5.58372 -2.94989,10.11391 -6.74261,11.85224c-1.15889,0.52677 -2.37045,0.84283 -3.52933,0.84283c-4.00342,0 -7.69079,-3.47666 -7.69079,-12.90577v-21.54474h3.84539l-0.52677,-2.42313c-1.26424,0.36874 -1.5803,0.47409 -3.26595,0.79015v-7.37473h-1.36959c-1.5803,3.42398 -4.7409,7.32205 -10.64068,7.63811v1.36959z" data-paper-data="{&quot;glyphName&quot;:&quot;&quot;,&quot;glyphIndex&quot;:12,&quot;lastGlyphOfWord&quot;:true,&quot;word&quot;:1}"></path></g></g></g></svg>